PathFileType	4	(X/Y/Z)	TRC_missing_Z7
DataRate	CameraRate	NumFrames	NumMarkers	Units	OrigDataRate	OrigDataStartFrame	OrigNumFrames
100.00	100.00	       6	45	mm	100.00	2283	       2609
Frame#	Time	T10			C7			CLAV			RACR1			LACR1			RPSI			LPSI			RASI			LASI			LTH2			LTH3			LTH1			RTH2			RTH3			RTH1			RLFC			RTB1			RTB3			RTB2			LLFC			LTB1			LTB3			LTB2			LLMAL			LCAL			RLMAL			RCAL			RMT5			RMT1			LMT5			LMT1			*31			*32			*33			*34			*35			*36			*37			*38			*39			*40			*41			*42			*43			*44			
		X1	Y1	Z1	X2	Y2	Z2	X3	Y3	Z3	X4	Y4	Z4	X5	Y5	Z5	X6	Y6	Z6	X7	Y7	X8	Y8	Z8	X9	Y9	Z9	X10	Y10	Z10	X11	Y11	Z11	X12	Y12	Z12	X13	Y13	Z13	X14	Y14	Z14	X15	Y15	Z15	X16	Y16	Z16	X17	Y17	Z17	X18	Y18	Z18	X19	Y19	Z19	X20	Y20	Z20	X21	Y21	Z21	X22	Y22	Z22	X23	Y23	Z23	X24	Y24	Z24	X25	Y25	Z25	X26	Y26	Z26	X27	Y27	Z27	X28	Y28	Z28	X29	Y29	Z29	X30	Y30	Z30	X31	Y31	Z31	X32	Y32	Z32	X33	Y33	Z33	X34	Y34	Z34	X35	Y35	Z35	X36	Y36	Z36	X37	Y37	Z37	X38	Y38	Z38	X39	Y39	Z39	X40	Y40	Z40	X41	Y41	Z41	X42	Y42	Z42	X43	Y43	Z43	X44	Y44	Z44	X45	Y45	Z45	
2283	22.820000	709.664734	1221.189209	-561.177979	707.406860	1465.376587	-414.103821	726.841675	1301.004150	-329.965820	552.232117	1406.576782	-380.305786	890.432251	1408.139404	-420.760834	667.773865	1009.655396	-649.897522	755.935486	1006.850647	-647.798950	580.826477	954.435608	-422.835327	834.274841	959.865845	-415.240265	908.200928	768.173828	-424.237488	876.643494	724.634155	-368.655762	862.181030	858.438904	-403.488525	596.579773	670.465088	-476.120361	549.131897	742.580139	-487.287872	605.183289	783.926453	-428.284851	595.213562	479.115326	-611.394836	647.006958	364.247192	-616.086365	623.898499	298.086578	-665.177551	653.651917	248.869110	-680.019470	846.564697	514.161011	-338.740509	802.227600	406.843231	-287.329163	829.154480	339.099487	-314.317627	790.433167	286.866272	-303.165039	808.646057	84.723557	-365.649811	756.986084	37.936733	-412.996338	641.442566	95.304993	-803.340698	682.263428	68.968163	-876.844360	631.483521	45.558559	-706.565308	707.963562	48.013386	-672.937683	831.710938	52.026733	-247.750397	768.137268	71.702484	-215.824066	921.303101	1054.229248	413.574615	922.877747	1062.794922	359.854156	0.000000	0.000000	0.000000	0.000000	0.000000	0.000000	0.000000	0.000000	0.000000	0.000000	0.000000	0.000000	0.000000	0.000000	0.000000	-18.022018	12.058125	-1119.594360	1151.576172	12.611629	-1033.582642	-0.769029	12.009882	0.954222	1167.675171	12.463014	85.354233	0.000000	0.000000	0.000000	0.000000	0.000000	0.000000	0.000000	0.000000	0.000000	
2284	22.830000	710.478333	1220.702026	-561.067871	708.215820	1464.796631	-413.788849	727.578430	1300.260132	-329.773560	553.016785	1405.927979	-380.018768	891.239807	1407.384521	-420.418732	668.885193	1008.942810	-649.779419	757.052551	1006.256958	-647.577332	581.678467	953.723694	-422.882690	835.150757	959.434509	-414.947235	909.544495	768.467957	-426.095673	875.605957	721.763794	-366.824738	862.943054	857.632202	-402.988708	597.522095	669.668640	-477.132874	550.216125	741.795532	-487.959320	606.166138	783.003235	-428.748474	595.734619	478.803925	-613.634277	647.230103	363.854797	-619.811768	624.018188	298.598389	-669.850281	653.660278	249.425125	-685.369934	845.980530	512.703979	-339.796722	800.894958	405.568573	-288.192200	827.961670	337.641724	-314.631836	788.929504	285.539886	-303.703125	807.150635	83.300926	-365.647247	755.814148	36.588547	-413.349640	641.189880	97.596275	-810.870728	682.060425	72.624634	-884.726501	631.407776	45.583477	-715.131287	707.812317	47.882824	-681.680664	829.800720	51.139126	-247.638535	765.928162	70.696609	-215.962677	921.271179	1054.161743	414.752380	922.717468	1062.450317	359.713562	0.000000	0.000000	0.000000	0.000000	0.000000	0.000000	0.000000	0.000000	0.000000	0.000000	0.000000	0.000000	0.000000	0.000000	0.000000	-18.022102	12.058247	-1119.594604	1151.576294	12.611569	-1033.582520	-0.768977	12.009896	0.954456	1167.675415	12.463434	85.354187	0.000000	0.000000	0.000000	0.000000	0.000000	0.000000	0.000000	0.000000	0.000000	
2285	22.840000	711.365417	1220.276611	-560.891418	709.090759	1464.296509	-413.434357	728.346924	1299.610596	-329.517792	553.860291	1405.388306	-379.718475	892.107727	1406.709473	-419.964539	670.018982	1008.291199	-649.571533	758.193970	1005.742981	-647.260376	582.552979	953.090759	-422.855591	836.041077	959.069031	-414.553497	910.547729	768.360779	-427.186279	874.912720	719.469849	-365.633972	863.721008	856.851501	-402.417725	598.380920	668.944519	-477.813019	551.256958	741.091858	-488.400574	607.132446	782.194275	-429.041107	596.159058	478.502869	-615.423706	647.290466	363.481354	-623.116760	624.014893	299.213013	-674.171692	653.527527	250.096039	-690.387634	845.475586	511.217133	-341.025696	799.618408	404.182526	-289.498718	826.824585	336.156769	-315.539673	787.476563	284.170624	-304.995239	805.726501	82.086372	-366.984009	754.725098	35.565796	-415.175446	640.898132	100.131149	-818.184631	681.881714	76.684380	-892.327698	631.328857	45.609947	-723.729431	707.669067	47.739258	-690.508118	828.034119	50.206108	-248.993118	763.825806	69.509026	-217.511612	921.239868	1054.134155	415.404388	922.539978	1062.069580	359.541077	271.313263	1036.453491	618.863281	0.000000	0.000000	0.000000	0.000000	0.000000	0.000000	0.000000	0.000000	0.000000	0.000000	0.000000	0.000000	-18.022186	12.058367	-1119.594849	1151.576294	12.611509	-1033.582397	-0.768925	12.009911	0.954688	1167.675659	12.463859	85.354134	0.000000	0.000000	0.000000	0.000000	0.000000	0.000000	0.000000	0.000000	0.000000	
2286	22.850000	712.324280	1219.917236	-560.652954	710.030518	1463.880615	-413.045929	729.144287	1299.061768	-329.203308	554.761108	1404.964722	-379.411377	893.033875	1406.119507	-419.402161	671.174072	1007.705933	-649.280334	759.358093	1005.314880	-646.853821	583.446045	952.542297	-422.760895	836.940796	958.775208	-414.063538	911.259155	767.948425	-427.606995	874.502258	717.663940	-364.953217	864.512146	856.107605	-401.780701	599.146790	668.298340	-478.151062	552.245789	740.475281	-488.608490	608.076050	781.508240	-429.163239	596.473206	478.212006	-616.739624	647.173889	363.130035	-625.971069	623.878845	299.933228	-678.108704	653.242615	250.887100	-695.034790	845.050110	509.719879	-342.424622	798.407227	402.704681	-291.229797	825.752869	334.655762	-317.015900	786.089478	282.768616	-306.999908	804.395020	81.062767	-369.572510	753.739136	34.833248	-418.367371	640.567627	102.921333	-825.236389	681.734192	81.166954	-899.586792	631.251465	45.647163	-732.351685	707.538940	47.586628	-699.417542	826.438721	49.241619	-251.705658	761.859497	68.168922	-220.363480	921.210754	1054.139771	415.594818	922.353455	1061.670532	359.339417	0.000000	0.000000	0.000000	921.851318	1056.266479	460.147034	0.000000	0.000000	0.000000	0.000000	0.000000	0.000000	0.000000	0.000000	0.000000	-18.022270	12.058486	-1119.595093	1151.576294	12.611449	-1033.582275	-0.768874	12.009925	0.954918	1167.675903	12.464288	85.354080	0.000000	0.000000	0.000000	0.000000	0.000000	0.000000	0.000000	0.000000	0.000000	
2287	22.860000	713.352722	1219.627319	-560.357727	711.033386	1463.552490	-412.629547	729.967041	1298.618164	-328.835693	555.716919	1404.662842	-379.104462	894.015381	1405.618652	-418.736450	672.349243	1007.191040	-648.913757	760.543457	1004.977661	-646.364502	584.353455	952.082947	-422.606506	837.845276	958.558044	-413.483185	911.738770	767.333618	-427.478973	874.311584	716.253235	-364.650421	865.314392	855.409485	-401.084503	599.810547	667.735840	-478.140625	553.174255	739.951538	-488.582520	608.990601	780.953003	-429.117371	596.664246	477.931458	-617.560486	646.868103	362.804138	-628.345215	623.601807	300.760590	-681.627808	652.795959	251.802185	-699.272766	844.703796	508.229980	-343.993652	797.270142	401.155121	-293.365906	824.755249	333.149628	-319.032593	784.782104	281.345001	-309.670624	803.173950	80.212379	-373.309875	752.872009	34.354614	-422.801086	640.198547	105.975220	-831.976135	681.623718	86.085510	-906.439331	631.179321	45.706757	-740.982300	707.425781	47.430904	-708.398071	825.035278	48.261944	-255.651123	760.052307	66.710953	-224.396072	921.185181	1054.171387	415.397247	922.167114	1061.273438	359.114807	875.696228	716.031433	-367.869690	921.841248	1056.256592	460.115570	0.000000	0.000000	0.000000	0.000000	0.000000	0.000000	0.000000	0.000000	0.000000	-18.022352	12.058604	-1119.595337	1151.576416	12.611389	-1033.582153	-0.768824	12.009939	0.955145	1167.676147	12.464720	85.354027	0.000000	0.000000	0.000000	0.000000	0.000000	0.000000	0.000000	0.000000	0.000000	
2288	22.870000	714.447998	1219.409424	-560.011780	712.096985	1463.314453	-412.191681	730.811340	1298.283203	-328.421356	556.724915	1404.486694	-378.804932	895.048767	1405.210083	-417.973236	673.543518	1006.749634	-648.480774	761.748779	1004.734924	-645.800598	585.271179	951.716370	-422.401337	838.750000	958.421387	-412.819519	912.051453	766.615662	-426.934052	874.284729	715.152100	-364.607849	866.126221	854.764709	-400.337738	600.363403	667.262695	-477.778748	554.033752	739.525818	-488.324768	609.869629	780.535400	-428.907745	596.720337	477.661591	-617.867310	646.363464	362.507172	-630.211182	623.177307	301.695190	-684.695313	652.179993	252.843475	-703.062439	844.435608	506.763428	-345.735718	796.214966	399.553802	-295.887268	823.839355	331.648987	-321.559875	783.566528	279.911316	-312.957062	802.076782	79.517212	-378.081543	752.134521	34.093315	-428.338837	639.791016	109.297226	-838.350708	681.554504	91.445320	-912.818787	631.114807	45.802780	-749.596436	707.331421	47.280239	-717.428284	823.836853	47.284645	-260.692474	758.420959	65.173454	-229.476654	921.163879	1054.220825	414.890808	921.990295	1060.898071	358.877106	0.000000	0.000000	0.000000	921.832031	1056.247803	460.087097	270.995422	1036.544189	618.950439	0.000000	0.000000	0.000000	0.000000	0.000000	0.000000	-18.022434	12.058720	-1119.595581	1151.576416	12.611329	-1033.582031	-0.768773	12.009953	0.955370	1167.676392	12.465157	85.353973	0.000000	0.000000	0.000000	0.000000	0.000000	0.000000	0.000000	0.000000	0.000000	
